<?xml version="1.0" standalone="no"?>
<svg xmlns:xlink="http://www.w3.org/1999/xlink" id="wave" style="transform:rotateY(180deg); transition: 0.3s" viewBox="0 0 1440 490" version="1.1" xmlns="http://www.w3.org/2000/svg"><defs><linearGradient id="sw-gradient-0" x1="0" x2="0" y1="1" y2="0"><stop stop-color="rgba(250, 248, 246, 1)" offset="0%"/><stop stop-color="rgba(250, 248, 246, 1)" offset="100%"/></linearGradient></defs><path style="transform:translate(0, 0px); opacity:1" fill="url(#sw-gradient-0)" d="M0,245L30,236.8C60,229,120,212,180,212.3C240,212,300,229,360,253.2C420,278,480,310,540,294C600,278,660,212,720,196C780,180,840,212,900,253.2C960,294,1020,343,1080,318.5C1140,294,1200,196,1260,138.8C1320,82,1380,65,1440,106.2C1500,147,1560,245,1620,277.7C1680,310,1740,278,1800,294C1860,310,1920,376,1980,383.8C2040,392,2100,343,2160,269.5C2220,196,2280,98,2340,106.2C2400,114,2460,229,2520,245C2580,261,2640,180,2700,187.8C2760,196,2820,294,2880,310.3C2940,327,3000,261,3060,204.2C3120,147,3180,98,3240,106.2C3300,114,3360,180,3420,171.5C3480,163,3540,82,3600,89.8C3660,98,3720,196,3780,236.8C3840,278,3900,261,3960,220.5C4020,180,4080,114,4140,81.7C4200,49,4260,49,4290,49L4320,49L4320,490L4290,490C4260,490,4200,490,4140,490C4080,490,4020,490,3960,490C3900,490,3840,490,3780,490C3720,490,3660,490,3600,490C3540,490,3480,490,3420,490C3360,490,3300,490,3240,490C3180,490,3120,490,3060,490C3000,490,2940,490,2880,490C2820,490,2760,490,2700,490C2640,490,2580,490,2520,490C2460,490,2400,490,2340,490C2280,490,2220,490,2160,490C2100,490,2040,490,1980,490C1920,490,1860,490,1800,490C1740,490,1680,490,1620,490C1560,490,1500,490,1440,490C1380,490,1320,490,1260,490C1200,490,1140,490,1080,490C1020,490,960,490,900,490C840,490,780,490,720,490C660,490,600,490,540,490C480,490,420,490,360,490C300,490,240,490,180,490C120,490,60,490,30,490L0,490Z"/></svg>