<svg version="1.1" id="Layer_1" xmlns="http://www.w3.org/2000/svg" xmlns:xlink="http://www.w3.org/1999/xlink" x="0px" y="0px"
	 width="100%" viewBox="0 0 510 429" enable-background="new 0 0 510 429" xml:space="preserve">
<path fill="#FFFFFF" opacity="1.000000" stroke="none" 
	d="
M355.000000,430.000000 
	C236.666672,430.000000 118.833336,430.000000 1.000000,430.000000 
	C1.000000,287.000000 1.000000,144.000000 1.000000,1.000000 
	C171.000000,1.000000 341.000000,1.000000 511.000000,1.000000 
	C511.000000,144.000000 511.000000,287.000000 511.000000,430.000000 
	C459.166656,430.000000 407.333344,430.000000 355.000000,430.000000 
M91.046150,97.416336 
	C80.976524,99.927834 72.122467,104.453003 65.110992,112.367729 
	C58.100281,120.281601 56.690712,128.043930 61.285492,137.481918 
	C63.099937,141.208908 65.177460,144.859833 67.554520,148.251511 
	C75.810371,160.031235 77.516266,173.009613 73.193726,186.287903 
	C69.923111,196.334824 65.392570,206.072891 60.502998,215.469849 
	C51.096508,233.547592 45.612534,252.126022 47.759197,272.872406 
	C50.318295,297.604675 59.468243,319.335175 76.227318,337.395630 
	C101.869339,365.028870 134.640366,378.583527 171.641907,381.778442 
	C204.594772,384.623718 236.580368,378.861176 267.544586,367.557220 
	C286.274719,360.719513 304.729370,353.122589 323.493958,346.385406 
	C339.724640,340.557953 356.626465,338.816772 373.586487,342.170502 
	C382.321442,343.897736 390.686310,347.479462 399.234589,350.171722 
	C411.426849,354.011627 423.743866,355.594025 434.330322,346.702087 
	C453.094757,330.941101 461.255920,310.385559 457.324493,286.205658 
	C454.963959,271.687439 450.036346,257.601379 446.616547,243.236771 
	C442.668030,226.651474 444.218658,210.903442 454.697327,196.707733 
	C458.250763,191.893845 461.576721,186.894211 464.734711,181.810547 
	C469.464050,174.197449 472.487457,166.173676 471.121307,156.841293 
	C469.847626,148.140930 465.610596,140.967590 459.491882,135.314438 
	C450.605286,127.103973 441.174133,119.410011 431.474823,112.165710 
	C402.360718,90.420830 372.238007,70.278503 338.230621,56.745979 
	C319.480743,49.284870 300.549194,42.361370 279.839325,44.041866 
	C265.143188,45.234386 252.267776,50.507984 243.503693,62.954987 
	C239.506561,68.631851 236.155258,74.836777 233.101486,81.090523 
	C224.636902,98.424957 210.553818,106.583313 191.715851,105.809692 
	C181.853027,105.404655 171.866440,103.834778 162.293015,101.391220 
	C139.006180,95.447418 115.699806,92.344650 91.046150,97.416336 
z"/>
<path fill="#F0F47E" opacity="1.000000" stroke="none" 
	d="
M91.441101,97.286316 
	C115.699806,92.344650 139.006180,95.447418 162.293015,101.391220 
	C171.866440,103.834778 181.853027,105.404655 191.715851,105.809692 
	C210.553818,106.583313 224.636902,98.424957 233.101486,81.090523 
	C236.155258,74.836777 239.506561,68.631851 243.503693,62.954987 
	C252.267776,50.507984 265.143188,45.234386 279.839325,44.041866 
	C300.549194,42.361370 319.480743,49.284870 338.230621,56.745979 
	C372.238007,70.278503 402.360718,90.420830 431.474823,112.165710 
	C441.174133,119.410011 450.605286,127.103973 459.491882,135.314438 
	C465.610596,140.967590 469.847626,148.140930 471.121307,156.841293 
	C472.487457,166.173676 469.464050,174.197449 464.734711,181.810547 
	C461.576721,186.894211 458.250763,191.893845 454.697327,196.707733 
	C444.218658,210.903442 442.668030,226.651474 446.616547,243.236771 
	C450.036346,257.601379 454.963959,271.687439 457.324493,286.205658 
	C461.255920,310.385559 453.094757,330.941101 434.330322,346.702087 
	C423.743866,355.594025 411.426849,354.011627 399.234589,350.171722 
	C390.686310,347.479462 382.321442,343.897736 373.586487,342.170502 
	C356.626465,338.816772 339.724640,340.557953 323.493958,346.385406 
	C304.729370,353.122589 286.274719,360.719513 267.544586,367.557220 
	C236.580368,378.861176 204.594772,384.623718 171.641907,381.778442 
	C134.640366,378.583527 101.869339,365.028870 76.227318,337.395630 
	C59.468243,319.335175 50.318295,297.604675 47.759197,272.872406 
	C45.612534,252.126022 51.096508,233.547592 60.502998,215.469849 
	C65.392570,206.072891 69.923111,196.334824 73.193726,186.287903 
	C77.516266,173.009613 75.810371,160.031235 67.554520,148.251511 
	C65.177460,144.859833 63.099937,141.208908 61.285492,137.481918 
	C56.690712,128.043930 58.100281,120.281601 65.110992,112.367729 
	C72.122467,104.453003 80.976524,99.927834 91.441101,97.286316 
z"/>
</svg>