<svg width="20" height="20" viewBox="0 0 20 20" fill="none" xmlns="http://www.w3.org/2000/svg">
<path fill-rule="evenodd" clip-rule="evenodd" d="M9.99998 5C7.48059 5 5.04564 6.07527 3.20681 8.03874L1.37006 9.99998L3.20681 11.9612C5.04711 13.9263 7.3775 15 9.99998 15C12.6225 15 14.9529 13.9263 16.7932 11.9612L18.6299 9.99998L16.7932 8.03874C14.9544 6.07527 12.5194 5 9.99998 5ZM20 9.99998L17.5231 7.35518C15.5056 5.20094 12.8108 4 9.99998 4C7.18913 4 4.4944 5.20094 2.47691 7.35518L0 9.99998L2.47691 12.6448C4.49163 14.7961 7.08018 16 9.99998 16C12.9198 16 15.5084 14.7961 17.5231 12.6448L20 9.99998Z" fill="#FFF"/>
<path d="M10 8.5C10 9.32843 9.32843 10 8.5 10C8.32534 10 8.15765 9.97015 8.00176 9.91527C8.00059 9.94337 8 9.97161 8 10C8 11.1046 8.89543 12 10 12C11.1046 12 12 11.1046 12 10C12 8.89543 11.1046 8 10 8C9.97161 8 9.94337 8.00059 9.91527 8.00176C9.97015 8.15765 10 8.32534 10 8.5Z" fill="#FFF"/>
</svg>
